<mxfile host="app.diagrams.net" modified="2021-11-02T14:39:45.589Z" agent="5.0 (Windows NT 10.0; Win64; x64) AppleWebKit/537.36 (KHTML, like Gecko) Chrome/95.0.4638.54 Safari/537.36" etag="0FAMfZaHu6BIMOzvcX0L" version="15.6.5" type="github">
  <diagram id="-q7fCWLuUgGVihTPQmMM" name="Page-1">
    <mxGraphModel dx="706" dy="435" grid="1" gridSize="10" guides="1" tooltips="1" connect="1" arrows="1" fold="1" page="1" pageScale="1" pageWidth="827" pageHeight="1169" math="0" shadow="0">
      <root>
        <mxCell id="0" />
        <mxCell id="1" parent="0" />
        <mxCell id="WB4RbaGqRDH5iFjSoW5o-9" value="Page" style="swimlane;fontStyle=1;align=center;verticalAlign=top;childLayout=stackLayout;horizontal=1;startSize=26;horizontalStack=0;resizeParent=1;resizeParentMax=0;resizeLast=0;collapsible=1;marginBottom=0;fontColor=default;strokeColor=default;fillColor=default;" vertex="1" collapsed="1" parent="1">
          <mxGeometry x="220" y="90" width="60" height="26" as="geometry">
            <mxRectangle x="160" y="90" width="180" height="398" as="alternateBounds" />
          </mxGeometry>
        </mxCell>
        <mxCell id="WB4RbaGqRDH5iFjSoW5o-2" value="+ pageNo: int" style="text;strokeColor=none;fillColor=none;align=left;verticalAlign=top;spacingLeft=4;spacingRight=4;overflow=hidden;rotatable=0;points=[[0,0.5],[1,0.5]];portConstraint=eastwest;fontColor=default;" vertex="1" parent="WB4RbaGqRDH5iFjSoW5o-9">
          <mxGeometry y="26" width="60" height="26" as="geometry" />
        </mxCell>
        <mxCell id="WB4RbaGqRDH5iFjSoW5o-3" value="+ list: List&lt;t&gt;" style="text;strokeColor=none;fillColor=none;align=left;verticalAlign=top;spacingLeft=4;spacingRight=4;overflow=hidden;rotatable=0;points=[[0,0.5],[1,0.5]];portConstraint=eastwest;fontColor=default;" vertex="1" parent="WB4RbaGqRDH5iFjSoW5o-9">
          <mxGeometry y="52" width="60" height="26" as="geometry" />
        </mxCell>
        <mxCell id="WB4RbaGqRDH5iFjSoW5o-4" value="+ totalItemNumber: long" style="text;strokeColor=none;fillColor=none;align=left;verticalAlign=top;spacingLeft=4;spacingRight=4;overflow=hidden;rotatable=0;points=[[0,0.5],[1,0.5]];portConstraint=eastwest;fontColor=default;" vertex="1" parent="WB4RbaGqRDH5iFjSoW5o-9">
          <mxGeometry y="78" width="60" height="26" as="geometry" />
        </mxCell>
        <mxCell id="WB4RbaGqRDH5iFjSoW5o-6" value="+ pageSize: int" style="text;strokeColor=none;fillColor=none;align=left;verticalAlign=top;spacingLeft=4;spacingRight=4;overflow=hidden;rotatable=0;points=[[0,0.5],[1,0.5]];portConstraint=eastwest;fontColor=default;" vertex="1" parent="WB4RbaGqRDH5iFjSoW5o-9">
          <mxGeometry y="104" width="60" height="26" as="geometry" />
        </mxCell>
        <mxCell id="WB4RbaGqRDH5iFjSoW5o-11" value="" style="line;strokeWidth=1;fillColor=none;align=left;verticalAlign=middle;spacingTop=-1;spacingLeft=3;spacingRight=3;rotatable=0;labelPosition=right;points=[];portConstraint=eastwest;fontColor=default;" vertex="1" parent="WB4RbaGqRDH5iFjSoW5o-9">
          <mxGeometry y="130" width="60" height="8" as="geometry" />
        </mxCell>
        <mxCell id="WB4RbaGqRDH5iFjSoW5o-13" value="+ getPageNo(): int&#xa;" style="text;strokeColor=none;fillColor=none;align=left;verticalAlign=top;spacingLeft=4;spacingRight=4;overflow=hidden;rotatable=0;points=[[0,0.5],[1,0.5]];portConstraint=eastwest;fontColor=default;" vertex="1" parent="WB4RbaGqRDH5iFjSoW5o-9">
          <mxGeometry y="138" width="60" height="26" as="geometry" />
        </mxCell>
        <mxCell id="WB4RbaGqRDH5iFjSoW5o-14" value="+ getPagSize(): int&#xa;" style="text;strokeColor=none;fillColor=none;align=left;verticalAlign=top;spacingLeft=4;spacingRight=4;overflow=hidden;rotatable=0;points=[[0,0.5],[1,0.5]];portConstraint=eastwest;fontColor=default;" vertex="1" parent="WB4RbaGqRDH5iFjSoW5o-9">
          <mxGeometry y="164" width="60" height="26" as="geometry" />
        </mxCell>
        <mxCell id="WB4RbaGqRDH5iFjSoW5o-15" value="+ getList(): List&lt;T&gt;" style="text;strokeColor=none;fillColor=none;align=left;verticalAlign=top;spacingLeft=4;spacingRight=4;overflow=hidden;rotatable=0;points=[[0,0.5],[1,0.5]];portConstraint=eastwest;fontColor=default;" vertex="1" parent="WB4RbaGqRDH5iFjSoW5o-9">
          <mxGeometry y="190" width="60" height="26" as="geometry" />
        </mxCell>
        <mxCell id="WB4RbaGqRDH5iFjSoW5o-16" value="+ setList(List&lt;T&gt;): void&#xa;" style="text;strokeColor=none;fillColor=none;align=left;verticalAlign=top;spacingLeft=4;spacingRight=4;overflow=hidden;rotatable=0;points=[[0,0.5],[1,0.5]];portConstraint=eastwest;fontColor=default;" vertex="1" parent="WB4RbaGqRDH5iFjSoW5o-9">
          <mxGeometry y="216" width="60" height="26" as="geometry" />
        </mxCell>
        <mxCell id="WB4RbaGqRDH5iFjSoW5o-17" value="+ getTotalPageNumber(): void&#xa;" style="text;strokeColor=none;fillColor=none;align=left;verticalAlign=top;spacingLeft=4;spacingRight=4;overflow=hidden;rotatable=0;points=[[0,0.5],[1,0.5]];portConstraint=eastwest;fontColor=default;" vertex="1" parent="WB4RbaGqRDH5iFjSoW5o-9">
          <mxGeometry y="242" width="60" height="26" as="geometry" />
        </mxCell>
        <mxCell id="WB4RbaGqRDH5iFjSoW5o-18" value="+ setTotalPageNumber(): int&#xa;" style="text;strokeColor=none;fillColor=none;align=left;verticalAlign=top;spacingLeft=4;spacingRight=4;overflow=hidden;rotatable=0;points=[[0,0.5],[1,0.5]];portConstraint=eastwest;fontColor=default;" vertex="1" parent="WB4RbaGqRDH5iFjSoW5o-9">
          <mxGeometry y="268" width="60" height="26" as="geometry" />
        </mxCell>
        <mxCell id="WB4RbaGqRDH5iFjSoW5o-19" value="+ isHasNext(): boolean&#xa;" style="text;strokeColor=none;fillColor=none;align=left;verticalAlign=top;spacingLeft=4;spacingRight=4;overflow=hidden;rotatable=0;points=[[0,0.5],[1,0.5]];portConstraint=eastwest;fontColor=default;" vertex="1" parent="WB4RbaGqRDH5iFjSoW5o-9">
          <mxGeometry y="294" width="60" height="26" as="geometry" />
        </mxCell>
        <mxCell id="WB4RbaGqRDH5iFjSoW5o-20" value="+ isHasPre(): boolean&#xa;" style="text;strokeColor=none;fillColor=none;align=left;verticalAlign=top;spacingLeft=4;spacingRight=4;overflow=hidden;rotatable=0;points=[[0,0.5],[1,0.5]];portConstraint=eastwest;fontColor=default;" vertex="1" parent="WB4RbaGqRDH5iFjSoW5o-9">
          <mxGeometry y="320" width="60" height="26" as="geometry" />
        </mxCell>
        <mxCell id="WB4RbaGqRDH5iFjSoW5o-21" value="+ getPrePage(): int&#xa;" style="text;strokeColor=none;fillColor=none;align=left;verticalAlign=top;spacingLeft=4;spacingRight=4;overflow=hidden;rotatable=0;points=[[0,0.5],[1,0.5]];portConstraint=eastwest;fontColor=default;" vertex="1" parent="WB4RbaGqRDH5iFjSoW5o-9">
          <mxGeometry y="346" width="60" height="26" as="geometry" />
        </mxCell>
        <mxCell id="WB4RbaGqRDH5iFjSoW5o-22" value="+ getNextPage(): int&#xa;" style="text;strokeColor=none;fillColor=none;align=left;verticalAlign=top;spacingLeft=4;spacingRight=4;overflow=hidden;rotatable=0;points=[[0,0.5],[1,0.5]];portConstraint=eastwest;fontColor=default;" vertex="1" parent="WB4RbaGqRDH5iFjSoW5o-9">
          <mxGeometry y="372" width="60" height="26" as="geometry" />
        </mxCell>
        <mxCell id="WB4RbaGqRDH5iFjSoW5o-23" value="封住翻页信息的Page类" style="rounded=0;whiteSpace=wrap;html=1;fontColor=#333333;strokeColor=none;fillColor=none;strokeWidth=2;" vertex="1" parent="1">
          <mxGeometry x="180" y="40" width="140" height="60" as="geometry" />
        </mxCell>
        <mxCell id="WB4RbaGqRDH5iFjSoW5o-24" value="封装查询条件的CriteriaBook类" style="rounded=0;whiteSpace=wrap;html=1;fontColor=default;strokeColor=none;fillColor=none;strokeWidth=2;" vertex="1" parent="1">
          <mxGeometry x="390" y="40" width="170" height="60" as="geometry" />
        </mxCell>
        <mxCell id="WB4RbaGqRDH5iFjSoW5o-25" value="CritertiaBook" style="swimlane;fontStyle=1;align=center;verticalAlign=top;childLayout=stackLayout;horizontal=1;startSize=26;horizontalStack=0;resizeParent=1;resizeParentMax=0;resizeLast=0;collapsible=1;marginBottom=0;fontColor=default;strokeColor=default;fillColor=default;" vertex="1" collapsed="1" parent="1">
          <mxGeometry x="385" y="90" width="110" height="26" as="geometry">
            <mxRectangle x="385" y="90" width="180" height="294" as="alternateBounds" />
          </mxGeometry>
        </mxCell>
        <mxCell id="WB4RbaGqRDH5iFjSoW5o-26" value="+ minPrice: int" style="text;strokeColor=none;fillColor=none;align=left;verticalAlign=top;spacingLeft=4;spacingRight=4;overflow=hidden;rotatable=0;points=[[0,0.5],[1,0.5]];portConstraint=eastwest;fontColor=default;" vertex="1" parent="WB4RbaGqRDH5iFjSoW5o-25">
          <mxGeometry y="26" width="110" height="26" as="geometry" />
        </mxCell>
        <mxCell id="WB4RbaGqRDH5iFjSoW5o-27" value="+ maxPrice: int" style="text;strokeColor=none;fillColor=none;align=left;verticalAlign=top;spacingLeft=4;spacingRight=4;overflow=hidden;rotatable=0;points=[[0,0.5],[1,0.5]];portConstraint=eastwest;fontColor=default;" vertex="1" parent="WB4RbaGqRDH5iFjSoW5o-25">
          <mxGeometry y="52" width="110" height="26" as="geometry" />
        </mxCell>
        <mxCell id="WB4RbaGqRDH5iFjSoW5o-28" value="+ pageNo: int" style="text;strokeColor=none;fillColor=none;align=left;verticalAlign=top;spacingLeft=4;spacingRight=4;overflow=hidden;rotatable=0;points=[[0,0.5],[1,0.5]];portConstraint=eastwest;fontColor=default;" vertex="1" parent="WB4RbaGqRDH5iFjSoW5o-25">
          <mxGeometry y="78" width="110" height="26" as="geometry" />
        </mxCell>
        <mxCell id="WB4RbaGqRDH5iFjSoW5o-30" value="" style="line;strokeWidth=1;fillColor=none;align=left;verticalAlign=middle;spacingTop=-1;spacingLeft=3;spacingRight=3;rotatable=0;labelPosition=right;points=[];portConstraint=eastwest;fontColor=default;" vertex="1" parent="WB4RbaGqRDH5iFjSoW5o-25">
          <mxGeometry y="104" width="110" height="8" as="geometry" />
        </mxCell>
        <mxCell id="WB4RbaGqRDH5iFjSoW5o-31" value="+ getMinPrice(): int&#xa;" style="text;strokeColor=none;fillColor=none;align=left;verticalAlign=top;spacingLeft=4;spacingRight=4;overflow=hidden;rotatable=0;points=[[0,0.5],[1,0.5]];portConstraint=eastwest;fontColor=default;" vertex="1" parent="WB4RbaGqRDH5iFjSoW5o-25">
          <mxGeometry y="112" width="110" height="26" as="geometry" />
        </mxCell>
        <mxCell id="WB4RbaGqRDH5iFjSoW5o-41" value="+ getMaxPrice(): int&#xa;" style="text;strokeColor=none;fillColor=none;align=left;verticalAlign=top;spacingLeft=4;spacingRight=4;overflow=hidden;rotatable=0;points=[[0,0.5],[1,0.5]];portConstraint=eastwest;fontColor=default;" vertex="1" parent="WB4RbaGqRDH5iFjSoW5o-25">
          <mxGeometry y="138" width="110" height="26" as="geometry" />
        </mxCell>
        <mxCell id="WB4RbaGqRDH5iFjSoW5o-42" value="+ setMinPrice(int): void&#xa;&#xa;" style="text;strokeColor=none;fillColor=none;align=left;verticalAlign=top;spacingLeft=4;spacingRight=4;overflow=hidden;rotatable=0;points=[[0,0.5],[1,0.5]];portConstraint=eastwest;fontColor=default;" vertex="1" parent="WB4RbaGqRDH5iFjSoW5o-25">
          <mxGeometry y="164" width="110" height="26" as="geometry" />
        </mxCell>
        <mxCell id="WB4RbaGqRDH5iFjSoW5o-43" value="+ setMaxPrice(int): void&#xa;" style="text;strokeColor=none;fillColor=none;align=left;verticalAlign=top;spacingLeft=4;spacingRight=4;overflow=hidden;rotatable=0;points=[[0,0.5],[1,0.5]];portConstraint=eastwest;fontColor=default;" vertex="1" parent="WB4RbaGqRDH5iFjSoW5o-25">
          <mxGeometry y="190" width="110" height="26" as="geometry" />
        </mxCell>
        <mxCell id="WB4RbaGqRDH5iFjSoW5o-39" value="+ getPageNo(): int&#xa;" style="text;strokeColor=none;fillColor=none;align=left;verticalAlign=top;spacingLeft=4;spacingRight=4;overflow=hidden;rotatable=0;points=[[0,0.5],[1,0.5]];portConstraint=eastwest;fontColor=default;" vertex="1" parent="WB4RbaGqRDH5iFjSoW5o-25">
          <mxGeometry y="216" width="110" height="26" as="geometry" />
        </mxCell>
        <mxCell id="WB4RbaGqRDH5iFjSoW5o-44" value="+ setPageNo(int): void" style="text;strokeColor=none;fillColor=none;align=left;verticalAlign=top;spacingLeft=4;spacingRight=4;overflow=hidden;rotatable=0;points=[[0,0.5],[1,0.5]];portConstraint=eastwest;fontColor=default;" vertex="1" parent="WB4RbaGqRDH5iFjSoW5o-25">
          <mxGeometry y="242" width="110" height="26" as="geometry" />
        </mxCell>
        <mxCell id="WB4RbaGqRDH5iFjSoW5o-45" value="+ toString(): String" style="text;strokeColor=none;fillColor=none;align=left;verticalAlign=top;spacingLeft=4;spacingRight=4;overflow=hidden;rotatable=0;points=[[0,0.5],[1,0.5]];portConstraint=eastwest;fontColor=default;" vertex="1" parent="WB4RbaGqRDH5iFjSoW5o-25">
          <mxGeometry y="268" width="110" height="26" as="geometry" />
        </mxCell>
        <mxCell id="WB4RbaGqRDH5iFjSoW5o-46" value="BaseDao" style="swimlane;fontStyle=1;align=center;verticalAlign=top;childLayout=stackLayout;horizontal=1;startSize=26;horizontalStack=0;resizeParent=1;resizeParentMax=0;resizeLast=0;collapsible=1;marginBottom=0;fontColor=default;strokeColor=default;strokeWidth=2;fillColor=default;gradientColor=none;" vertex="1" parent="1">
          <mxGeometry x="520" y="604" width="160" height="86" as="geometry" />
        </mxCell>
        <mxCell id="WB4RbaGqRDH5iFjSoW5o-47" value="+ field: type" style="text;strokeColor=none;fillColor=none;align=left;verticalAlign=top;spacingLeft=4;spacingRight=4;overflow=hidden;rotatable=0;points=[[0,0.5],[1,0.5]];portConstraint=eastwest;fontColor=default;" vertex="1" parent="WB4RbaGqRDH5iFjSoW5o-46">
          <mxGeometry y="26" width="160" height="26" as="geometry" />
        </mxCell>
        <mxCell id="WB4RbaGqRDH5iFjSoW5o-48" value="" style="line;strokeWidth=1;fillColor=none;align=left;verticalAlign=middle;spacingTop=-1;spacingLeft=3;spacingRight=3;rotatable=0;labelPosition=right;points=[];portConstraint=eastwest;fontColor=default;" vertex="1" parent="WB4RbaGqRDH5iFjSoW5o-46">
          <mxGeometry y="52" width="160" height="8" as="geometry" />
        </mxCell>
        <mxCell id="WB4RbaGqRDH5iFjSoW5o-49" value="+ method(type): type" style="text;strokeColor=none;fillColor=none;align=left;verticalAlign=top;spacingLeft=4;spacingRight=4;overflow=hidden;rotatable=0;points=[[0,0.5],[1,0.5]];portConstraint=eastwest;fontColor=default;" vertex="1" parent="WB4RbaGqRDH5iFjSoW5o-46">
          <mxGeometry y="60" width="160" height="26" as="geometry" />
        </mxCell>
        <mxCell id="WB4RbaGqRDH5iFjSoW5o-50" value="BookDaoImpl" style="swimlane;fontStyle=1;align=center;verticalAlign=top;childLayout=stackLayout;horizontal=1;startSize=26;horizontalStack=0;resizeParent=1;resizeParentMax=0;resizeLast=0;collapsible=1;marginBottom=0;fontColor=default;strokeColor=default;strokeWidth=2;fillColor=default;gradientColor=none;" vertex="1" parent="1">
          <mxGeometry x="370" y="790" width="160" height="86" as="geometry" />
        </mxCell>
        <mxCell id="WB4RbaGqRDH5iFjSoW5o-51" value="+ field: type" style="text;strokeColor=none;fillColor=none;align=left;verticalAlign=top;spacingLeft=4;spacingRight=4;overflow=hidden;rotatable=0;points=[[0,0.5],[1,0.5]];portConstraint=eastwest;fontColor=default;" vertex="1" parent="WB4RbaGqRDH5iFjSoW5o-50">
          <mxGeometry y="26" width="160" height="26" as="geometry" />
        </mxCell>
        <mxCell id="WB4RbaGqRDH5iFjSoW5o-52" value="" style="line;strokeWidth=1;fillColor=none;align=left;verticalAlign=middle;spacingTop=-1;spacingLeft=3;spacingRight=3;rotatable=0;labelPosition=right;points=[];portConstraint=eastwest;fontColor=default;" vertex="1" parent="WB4RbaGqRDH5iFjSoW5o-50">
          <mxGeometry y="52" width="160" height="8" as="geometry" />
        </mxCell>
        <mxCell id="WB4RbaGqRDH5iFjSoW5o-53" value="+ method(type): type" style="text;strokeColor=none;fillColor=none;align=left;verticalAlign=top;spacingLeft=4;spacingRight=4;overflow=hidden;rotatable=0;points=[[0,0.5],[1,0.5]];portConstraint=eastwest;fontColor=default;" vertex="1" parent="WB4RbaGqRDH5iFjSoW5o-50">
          <mxGeometry y="60" width="160" height="26" as="geometry" />
        </mxCell>
        <mxCell id="WB4RbaGqRDH5iFjSoW5o-58" value="«interface»&lt;br&gt;&lt;b&gt;Name&lt;/b&gt;" style="html=1;fontColor=default;strokeColor=default;strokeWidth=2;fillColor=default;gradientColor=none;" vertex="1" parent="1">
          <mxGeometry x="390" y="130" width="110" height="50" as="geometry" />
        </mxCell>
        <mxCell id="WB4RbaGqRDH5iFjSoW5o-59" value="&lt;p style=&quot;margin: 0px ; margin-top: 4px ; text-align: center&quot;&gt;&lt;i&gt;&amp;lt;&amp;lt;Interface&amp;gt;&amp;gt;&lt;/i&gt;&lt;br&gt;&lt;b&gt;BookDao&lt;/b&gt;&lt;/p&gt;&lt;hr size=&quot;1&quot;&gt;&lt;p style=&quot;margin: 0px ; margin-left: 4px&quot;&gt;+ field1: Type&lt;br&gt;+ field2: Type&lt;/p&gt;&lt;hr size=&quot;1&quot;&gt;&lt;p style=&quot;margin: 0px ; margin-left: 4px&quot;&gt;+ method1(Type): Type&lt;br&gt;+ method2(Type, Type): Type&lt;/p&gt;" style="verticalAlign=top;align=left;overflow=fill;fontSize=12;fontFamily=Helvetica;html=1;fontColor=default;strokeColor=default;strokeWidth=2;fillColor=default;gradientColor=none;" vertex="1" parent="1">
          <mxGeometry x="200" y="550" width="190" height="140" as="geometry" />
        </mxCell>
        <mxCell id="WB4RbaGqRDH5iFjSoW5o-60" value="&lt;p style=&quot;margin: 0px ; margin-top: 4px ; text-align: center&quot;&gt;&lt;i&gt;&amp;lt;&amp;lt;Interface&amp;gt;&amp;gt;&lt;/i&gt;&lt;br&gt;&lt;b&gt;Dao&lt;/b&gt;&lt;/p&gt;&lt;hr size=&quot;1&quot;&gt;&lt;p style=&quot;margin: 0px ; margin-left: 4px&quot;&gt;+ field1: Type&lt;br&gt;+ field2: Type&lt;/p&gt;&lt;hr size=&quot;1&quot;&gt;&lt;p style=&quot;margin: 0px ; margin-left: 4px&quot;&gt;+ method1(Type): Type&lt;br&gt;+ method2(Type, Type): Type&lt;/p&gt;" style="verticalAlign=top;align=left;overflow=fill;fontSize=12;fontFamily=Helvetica;html=1;fontColor=default;strokeColor=default;strokeWidth=2;fillColor=default;gradientColor=none;" vertex="1" parent="1">
          <mxGeometry x="495" y="360" width="190" height="140" as="geometry" />
        </mxCell>
        <mxCell id="WB4RbaGqRDH5iFjSoW5o-61" value="Extends" style="endArrow=block;endSize=16;endFill=0;html=1;rounded=0;fontColor=default;exitX=0.5;exitY=0;exitDx=0;exitDy=0;strokeColor=default;labelBackgroundColor=default;entryX=0.545;entryY=1.003;entryDx=0;entryDy=0;entryPerimeter=0;" edge="1" parent="1" source="WB4RbaGqRDH5iFjSoW5o-46" target="WB4RbaGqRDH5iFjSoW5o-60">
          <mxGeometry width="160" relative="1" as="geometry">
            <mxPoint x="640" y="750" as="sourcePoint" />
            <mxPoint x="800" y="750" as="targetPoint" />
          </mxGeometry>
        </mxCell>
        <mxCell id="WB4RbaGqRDH5iFjSoW5o-62" value="Extends" style="endArrow=block;endSize=16;endFill=0;html=1;rounded=0;labelBackgroundColor=default;fontColor=default;strokeColor=default;exitX=0.5;exitY=0;exitDx=0;exitDy=0;entryX=0.509;entryY=1.093;entryDx=0;entryDy=0;entryPerimeter=0;" edge="1" parent="1" source="WB4RbaGqRDH5iFjSoW5o-50" target="WB4RbaGqRDH5iFjSoW5o-49">
          <mxGeometry width="160" relative="1" as="geometry">
            <mxPoint x="470" y="740" as="sourcePoint" />
            <mxPoint x="630" y="740" as="targetPoint" />
          </mxGeometry>
        </mxCell>
        <mxCell id="WB4RbaGqRDH5iFjSoW5o-63" value="Use" style="endArrow=open;endSize=12;dashed=1;html=1;rounded=0;labelBackgroundColor=default;fontColor=default;strokeColor=default;entryX=0.5;entryY=1;entryDx=0;entryDy=0;exitX=0.5;exitY=0;exitDx=0;exitDy=0;" edge="1" parent="1" source="WB4RbaGqRDH5iFjSoW5o-50" target="WB4RbaGqRDH5iFjSoW5o-59">
          <mxGeometry width="160" relative="1" as="geometry">
            <mxPoint x="200" y="750" as="sourcePoint" />
            <mxPoint x="360" y="750" as="targetPoint" />
          </mxGeometry>
        </mxCell>
      </root>
    </mxGraphModel>
  </diagram>
</mxfile>
